<?xml version="1.0" encoding="UTF-8" standalone="no"?>
<svg
   viewBox="0 0 415.26943 534.87239"
   width="415.26944"
   height="534.87238"
   version="1.1"
   id="svg197"
   sodipodi:docname="bilette1.svg"
   inkscape:version="1.3.2 (091e20e, 2023-11-25)"
   xmlns:inkscape="http://www.inkscape.org/namespaces/inkscape"
   xmlns:sodipodi="http://sodipodi.sourceforge.net/DTD/sodipodi-0.dtd"
   xmlns="http://www.w3.org/2000/svg"
   xmlns:svg="http://www.w3.org/2000/svg">
  <sodipodi:namedview
     id="namedview197"
     pagecolor="#ffffff"
     bordercolor="#000000"
     borderopacity="0.25"
     inkscape:showpageshadow="2"
     inkscape:pageopacity="0.0"
     inkscape:pagecheckerboard="0"
     inkscape:deskcolor="#d1d1d1"
     showgrid="false"
     inkscape:zoom="1.7360394"
     inkscape:cx="200.16827"
     inkscape:cy="162.43871"
     inkscape:window-width="1664"
     inkscape:window-height="1051"
     inkscape:window-x="0"
     inkscape:window-y="38"
     inkscape:window-maximized="1"
     inkscape:current-layer="g197" />
  <desc
     id="desc1">bilette1.DXF - scale = 25.400000, origin = (0.000000, 0.000000), method = file</desc>
  <defs
     id="defs148">
    <marker
       id="DistanceX"
       orient="auto"
       refX="0"
       refY="0"
       style="overflow:visible">
      <path
         d="M 3,-3 -3,3 M 0,-5 V 5"
         style="stroke:#000000;stroke-width:0.5"
         id="path1" />
    </marker>
    <pattern
       id="Hatch"
       patternUnits="userSpaceOnUse"
       width="8"
       height="8"
       x="0"
       y="0">
      <path
         d="M8 4 l-4,4"
         stroke="#000000"
         stroke-width="0.25"
         linecap="square"
         id="path2" />
      <path
         d="M6 2 l-4,4"
         stroke="#000000"
         stroke-width="0.25"
         linecap="square"
         id="path3" />
      <path
         d="M4 0 l-4,4"
         stroke="#000000"
         stroke-width="0.25"
         linecap="square"
         id="path4" />
    </pattern>
    <symbol
       id="*Model_Space" />
    <symbol
       id="*Paper_Space" />
    <symbol
       id="*Paper_Space0" />
    <symbol
       id="SW_CENTERMARKSYMBOL_0">
      <path
         style="fill:none;stroke:#000000;stroke-linecap:round"
         d="m 0,1122.52 v -9.6"
         id="path5" />
      <path
         style="fill:none;stroke:#000000;stroke-linecap:round"
         d="M 0,1122.52 H -9.6"
         id="path6" />
      <path
         style="fill:none;stroke:#000000;stroke-linecap:round"
         d="m 0,1122.52 v 9.6"
         id="path7" />
      <path
         style="fill:none;stroke:#000000;stroke-linecap:round"
         d="M 0,1122.52 H 9.6"
         id="path8" />
      <path
         style="fill:none;stroke:#000000;stroke-linecap:round"
         d="m 0,1103.32 v -14.97"
         id="path9" />
      <path
         style="fill:none;stroke:#000000;stroke-linecap:round"
         d="M -19.2,1122.52 H -34.1669"
         id="path10" />
      <path
         style="fill:none;stroke:#000000;stroke-linecap:round"
         d="m 0,1141.72 v 14.97"
         id="path11" />
      <path
         style="fill:none;stroke:#000000;stroke-linecap:round"
         d="M 19.2,1122.52 H 34.1669"
         id="path12" />
    </symbol>
    <symbol
       id="SW_CENTERMARKSYMBOL_1">
      <path
         style="fill:none;stroke:#000000;stroke-linecap:round"
         d="m 0,1122.52 v -9.6"
         id="path13" />
      <path
         style="fill:none;stroke:#000000;stroke-linecap:round"
         d="M 0,1122.52 H -9.6"
         id="path14" />
      <path
         style="fill:none;stroke:#000000;stroke-linecap:round"
         d="m 0,1122.52 v 9.6"
         id="path15" />
      <path
         style="fill:none;stroke:#000000;stroke-linecap:round"
         d="M 0,1122.52 H 9.6"
         id="path16" />
      <path
         style="fill:none;stroke:#000000;stroke-linecap:round"
         d="m 0,1103.32 v -14.97"
         id="path17" />
      <path
         style="fill:none;stroke:#000000;stroke-linecap:round"
         d="M -19.2,1122.52 H -34.1669"
         id="path18" />
      <path
         style="fill:none;stroke:#000000;stroke-linecap:round"
         d="m 0,1141.72 v 14.97"
         id="path19" />
      <path
         style="fill:none;stroke:#000000;stroke-linecap:round"
         d="M 19.2,1122.52 H 34.1669"
         id="path20" />
    </symbol>
    <symbol
       id="SW_CENTERMARKSYMBOL_2">
      <path
         style="fill:none;stroke:#000000;stroke-linecap:round"
         d="m 0,1122.52 v -9.6"
         id="path21" />
      <path
         style="fill:none;stroke:#000000;stroke-linecap:round"
         d="M 0,1122.52 H -9.6"
         id="path22" />
      <path
         style="fill:none;stroke:#000000;stroke-linecap:round"
         d="m 0,1122.52 v 9.6"
         id="path23" />
      <path
         style="fill:none;stroke:#000000;stroke-linecap:round"
         d="M 0,1122.52 H 9.6"
         id="path24" />
      <path
         style="fill:none;stroke:#000000;stroke-linecap:round"
         d="m 0,1112.92 v -1.89"
         id="path25" />
      <path
         style="fill:none;stroke:#000000;stroke-linecap:round"
         d="m -9.6,1122.52 h -1.8898"
         id="path26" />
      <path
         style="fill:none;stroke:#000000;stroke-linecap:round"
         d="m 0,1132.12 v 1.89"
         id="path27" />
      <path
         style="fill:none;stroke:#000000;stroke-linecap:round"
         d="m 9.6,1122.52 h 1.8898"
         id="path28" />
    </symbol>
    <symbol
       id="SW_CENTERMARKSYMBOL_3">
      <path
         style="fill:none;stroke:#000000;stroke-linecap:round"
         d="m 0,1122.52 v -9.6"
         id="path29" />
      <path
         style="fill:none;stroke:#000000;stroke-linecap:round"
         d="M 0,1122.52 H -9.6"
         id="path30" />
      <path
         style="fill:none;stroke:#000000;stroke-linecap:round"
         d="m 0,1122.52 v 9.6"
         id="path31" />
      <path
         style="fill:none;stroke:#000000;stroke-linecap:round"
         d="M 0,1122.52 H 9.6"
         id="path32" />
      <path
         style="fill:none;stroke:#000000;stroke-linecap:round"
         d="m 0,1112.92 v -1.89"
         id="path33" />
      <path
         style="fill:none;stroke:#000000;stroke-linecap:round"
         d="m -9.6,1122.52 h -1.8898"
         id="path34" />
      <path
         style="fill:none;stroke:#000000;stroke-linecap:round"
         d="m 0,1132.12 v 1.89"
         id="path35" />
      <path
         style="fill:none;stroke:#000000;stroke-linecap:round"
         d="m 9.6,1122.52 h 1.8898"
         id="path36" />
    </symbol>
    <symbol
       id="SW_CENTERMARKSYMBOL_4">
      <path
         style="fill:none;stroke:#000000;stroke-linecap:round"
         d="m 0,1122.52 v -9.6"
         id="path37" />
      <path
         style="fill:none;stroke:#000000;stroke-linecap:round"
         d="M 0,1122.52 H -9.6"
         id="path38" />
      <path
         style="fill:none;stroke:#000000;stroke-linecap:round"
         d="m 0,1122.52 v 9.6"
         id="path39" />
      <path
         style="fill:none;stroke:#000000;stroke-linecap:round"
         d="M 0,1122.52 H 9.6"
         id="path40" />
      <path
         style="fill:none;stroke:#000000;stroke-linecap:round"
         d="m 0,1112.92 v -1.89"
         id="path41" />
      <path
         style="fill:none;stroke:#000000;stroke-linecap:round"
         d="m -9.6,1122.52 h -1.8898"
         id="path42" />
      <path
         style="fill:none;stroke:#000000;stroke-linecap:round"
         d="m 0,1132.12 v 1.89"
         id="path43" />
      <path
         style="fill:none;stroke:#000000;stroke-linecap:round"
         d="m 9.6,1122.52 h 1.8898"
         id="path44" />
    </symbol>
    <symbol
       id="SW_CENTERMARKSYMBOL_5">
      <path
         style="fill:none;stroke:#000000;stroke-linecap:round"
         d="m 0,1122.52 v -9.6"
         id="path45" />
      <path
         style="fill:none;stroke:#000000;stroke-linecap:round"
         d="M 0,1122.52 H -9.6"
         id="path46" />
      <path
         style="fill:none;stroke:#000000;stroke-linecap:round"
         d="m 0,1122.52 v 9.6"
         id="path47" />
      <path
         style="fill:none;stroke:#000000;stroke-linecap:round"
         d="M 0,1122.52 H 9.6"
         id="path48" />
      <path
         style="fill:none;stroke:#000000;stroke-linecap:round"
         d="m 0,1112.92 v -1.89"
         id="path49" />
      <path
         style="fill:none;stroke:#000000;stroke-linecap:round"
         d="m -9.6,1122.52 h -1.8898"
         id="path50" />
      <path
         style="fill:none;stroke:#000000;stroke-linecap:round"
         d="m 0,1132.12 v 1.89"
         id="path51" />
      <path
         style="fill:none;stroke:#000000;stroke-linecap:round"
         d="m 9.6,1122.52 h 1.8898"
         id="path52" />
    </symbol>
    <symbol
       id="SW_CENTERMARKSYMBOL_6">
      <path
         style="fill:none;stroke:#000000;stroke-linecap:round"
         d="m 0,1122.52 v -9.6"
         id="path53" />
      <path
         style="fill:none;stroke:#000000;stroke-linecap:round"
         d="M 0,1122.52 H -9.6"
         id="path54" />
      <path
         style="fill:none;stroke:#000000;stroke-linecap:round"
         d="m 0,1122.52 v 9.6"
         id="path55" />
      <path
         style="fill:none;stroke:#000000;stroke-linecap:round"
         d="M 0,1122.52 H 9.6"
         id="path56" />
      <path
         style="fill:none;stroke:#000000;stroke-linecap:round"
         d="m 0,1103.32 v -14.97"
         id="path57" />
      <path
         style="fill:none;stroke:#000000;stroke-linecap:round"
         d="M -19.2,1122.52 H -34.1669"
         id="path58" />
      <path
         style="fill:none;stroke:#000000;stroke-linecap:round"
         d="m 0,1141.72 v 14.97"
         id="path59" />
      <path
         style="fill:none;stroke:#000000;stroke-linecap:round"
         d="M 19.2,1122.52 H 34.1669"
         id="path60" />
    </symbol>
    <symbol
       id="SW_CENTERMARKSYMBOL_7">
      <path
         style="fill:none;stroke:#000000;stroke-linecap:round"
         d="m 0,1122.52 v -9.6"
         id="path61" />
      <path
         style="fill:none;stroke:#000000;stroke-linecap:round"
         d="M 0,1122.52 H -9.6"
         id="path62" />
      <path
         style="fill:none;stroke:#000000;stroke-linecap:round"
         d="m 0,1122.52 v 9.6"
         id="path63" />
      <path
         style="fill:none;stroke:#000000;stroke-linecap:round"
         d="M 0,1122.52 H 9.6"
         id="path64" />
      <path
         style="fill:none;stroke:#000000;stroke-linecap:round"
         d="m 0,1103.32 v -14.97"
         id="path65" />
      <path
         style="fill:none;stroke:#000000;stroke-linecap:round"
         d="M -19.2,1122.52 H -34.1669"
         id="path66" />
      <path
         style="fill:none;stroke:#000000;stroke-linecap:round"
         d="m 0,1141.72 v 14.97"
         id="path67" />
      <path
         style="fill:none;stroke:#000000;stroke-linecap:round"
         d="M 19.2,1122.52 H 34.1669"
         id="path68" />
    </symbol>
    <symbol
       id="SW_CENTERMARKSYMBOL_8">
      <path
         style="fill:none;stroke:#000000;stroke-linecap:round"
         d="m 0,1122.52 v -9.6"
         id="path69" />
      <path
         style="fill:none;stroke:#000000;stroke-linecap:round"
         d="M 0,1122.52 H -9.6"
         id="path70" />
      <path
         style="fill:none;stroke:#000000;stroke-linecap:round"
         d="m 0,1122.52 v 9.6"
         id="path71" />
      <path
         style="fill:none;stroke:#000000;stroke-linecap:round"
         d="M 0,1122.52 H 9.6"
         id="path72" />
      <path
         style="fill:none;stroke:#000000;stroke-linecap:round"
         d="m 0,1112.92 v -1.89"
         id="path73" />
      <path
         style="fill:none;stroke:#000000;stroke-linecap:round"
         d="m -9.6,1122.52 h -1.8898"
         id="path74" />
      <path
         style="fill:none;stroke:#000000;stroke-linecap:round"
         d="m 0,1132.12 v 1.89"
         id="path75" />
      <path
         style="fill:none;stroke:#000000;stroke-linecap:round"
         d="m 9.6,1122.52 h 1.8898"
         id="path76" />
    </symbol>
    <symbol
       id="SW_CENTERMARKSYMBOL_9">
      <path
         style="fill:none;stroke:#000000;stroke-linecap:round"
         d="m 0,1122.52 v -9.6"
         id="path77" />
      <path
         style="fill:none;stroke:#000000;stroke-linecap:round"
         d="M 0,1122.52 H -9.6"
         id="path78" />
      <path
         style="fill:none;stroke:#000000;stroke-linecap:round"
         d="m 0,1122.52 v 9.6"
         id="path79" />
      <path
         style="fill:none;stroke:#000000;stroke-linecap:round"
         d="M 0,1122.52 H 9.6"
         id="path80" />
      <path
         style="fill:none;stroke:#000000;stroke-linecap:round"
         d="m 0,1112.92 v -1.89"
         id="path81" />
      <path
         style="fill:none;stroke:#000000;stroke-linecap:round"
         d="m -9.6,1122.52 h -1.8898"
         id="path82" />
      <path
         style="fill:none;stroke:#000000;stroke-linecap:round"
         d="m 0,1132.12 v 1.89"
         id="path83" />
      <path
         style="fill:none;stroke:#000000;stroke-linecap:round"
         d="m 9.6,1122.52 h 1.8898"
         id="path84" />
    </symbol>
    <symbol
       id="SW_CENTERMARKSYMBOL_10">
      <path
         style="fill:none;stroke:#000000;stroke-linecap:round"
         d="m 0,1122.52 v -9.6"
         id="path85" />
      <path
         style="fill:none;stroke:#000000;stroke-linecap:round"
         d="M 0,1122.52 H -9.6"
         id="path86" />
      <path
         style="fill:none;stroke:#000000;stroke-linecap:round"
         d="m 0,1122.52 v 9.6"
         id="path87" />
      <path
         style="fill:none;stroke:#000000;stroke-linecap:round"
         d="M 0,1122.52 H 9.6"
         id="path88" />
      <path
         style="fill:none;stroke:#000000;stroke-linecap:round"
         d="m 0,1112.92 v -1.89"
         id="path89" />
      <path
         style="fill:none;stroke:#000000;stroke-linecap:round"
         d="m -9.6,1122.52 h -1.8898"
         id="path90" />
      <path
         style="fill:none;stroke:#000000;stroke-linecap:round"
         d="m 0,1132.12 v 1.89"
         id="path91" />
      <path
         style="fill:none;stroke:#000000;stroke-linecap:round"
         d="m 9.6,1122.52 h 1.8898"
         id="path92" />
    </symbol>
    <symbol
       id="SW_CENTERMARKSYMBOL_11">
      <path
         style="fill:none;stroke:#000000;stroke-linecap:round"
         d="m 0,1122.52 v -9.6"
         id="path93" />
      <path
         style="fill:none;stroke:#000000;stroke-linecap:round"
         d="M 0,1122.52 H -9.6"
         id="path94" />
      <path
         style="fill:none;stroke:#000000;stroke-linecap:round"
         d="m 0,1122.52 v 9.6"
         id="path95" />
      <path
         style="fill:none;stroke:#000000;stroke-linecap:round"
         d="M 0,1122.52 H 9.6"
         id="path96" />
      <path
         style="fill:none;stroke:#000000;stroke-linecap:round"
         d="m 0,1112.92 v -1.89"
         id="path97" />
      <path
         style="fill:none;stroke:#000000;stroke-linecap:round"
         d="m -9.6,1122.52 h -1.8898"
         id="path98" />
      <path
         style="fill:none;stroke:#000000;stroke-linecap:round"
         d="m 0,1132.12 v 1.89"
         id="path99" />
      <path
         style="fill:none;stroke:#000000;stroke-linecap:round"
         d="m 9.6,1122.52 h 1.8898"
         id="path100" />
    </symbol>
    <symbol
       id="SW_CENTERMARKSYMBOL_12">
      <path
         style="fill:none;stroke:#000000;stroke-linecap:round"
         d="m 0,1122.52 v -9.6"
         id="path101" />
      <path
         style="fill:none;stroke:#000000;stroke-linecap:round"
         d="M 0,1122.52 H -9.6"
         id="path102" />
      <path
         style="fill:none;stroke:#000000;stroke-linecap:round"
         d="m 0,1122.52 v 9.6"
         id="path103" />
      <path
         style="fill:none;stroke:#000000;stroke-linecap:round"
         d="M 0,1122.52 H 9.6"
         id="path104" />
      <path
         style="fill:none;stroke:#000000;stroke-linecap:round"
         d="m 0,1103.32 v -14.97"
         id="path105" />
      <path
         style="fill:none;stroke:#000000;stroke-linecap:round"
         d="M -19.2,1122.52 H -34.1669"
         id="path106" />
      <path
         style="fill:none;stroke:#000000;stroke-linecap:round"
         d="m 0,1141.72 v 14.97"
         id="path107" />
      <path
         style="fill:none;stroke:#000000;stroke-linecap:round"
         d="M 19.2,1122.52 H 34.1669"
         id="path108" />
    </symbol>
    <symbol
       id="SW_CENTERMARKSYMBOL_13">
      <path
         style="fill:none;stroke:#000000;stroke-linecap:round"
         d="m 0,1122.52 v -9.6"
         id="path109" />
      <path
         style="fill:none;stroke:#000000;stroke-linecap:round"
         d="M 0,1122.52 H -9.6"
         id="path110" />
      <path
         style="fill:none;stroke:#000000;stroke-linecap:round"
         d="m 0,1122.52 v 9.6"
         id="path111" />
      <path
         style="fill:none;stroke:#000000;stroke-linecap:round"
         d="M 0,1122.52 H 9.6"
         id="path112" />
      <path
         style="fill:none;stroke:#000000;stroke-linecap:round"
         d="m 0,1103.32 v -14.97"
         id="path113" />
      <path
         style="fill:none;stroke:#000000;stroke-linecap:round"
         d="M -19.2,1122.52 H -34.1669"
         id="path114" />
      <path
         style="fill:none;stroke:#000000;stroke-linecap:round"
         d="m 0,1141.72 v 14.97"
         id="path115" />
      <path
         style="fill:none;stroke:#000000;stroke-linecap:round"
         d="M 19.2,1122.52 H 34.1669"
         id="path116" />
    </symbol>
    <symbol
       id="SW_CENTERMARKSYMBOL_14">
      <path
         style="fill:none;stroke:#000000;stroke-linecap:round"
         d="m 0,1122.52 v -9.6"
         id="path117" />
      <path
         style="fill:none;stroke:#000000;stroke-linecap:round"
         d="M 0,1122.52 H -9.6"
         id="path118" />
      <path
         style="fill:none;stroke:#000000;stroke-linecap:round"
         d="m 0,1122.52 v 9.6"
         id="path119" />
      <path
         style="fill:none;stroke:#000000;stroke-linecap:round"
         d="M 0,1122.52 H 9.6"
         id="path120" />
      <path
         style="fill:none;stroke:#000000;stroke-linecap:round"
         d="m 0,1112.92 v -1.89"
         id="path121" />
      <path
         style="fill:none;stroke:#000000;stroke-linecap:round"
         d="m -9.6,1122.52 h -1.8898"
         id="path122" />
      <path
         style="fill:none;stroke:#000000;stroke-linecap:round"
         d="m 0,1132.12 v 1.89"
         id="path123" />
      <path
         style="fill:none;stroke:#000000;stroke-linecap:round"
         d="m 9.6,1122.52 h 1.8898"
         id="path124" />
    </symbol>
    <symbol
       id="SW_CENTERMARKSYMBOL_15">
      <path
         style="fill:none;stroke:#000000;stroke-linecap:round"
         d="m 0,1122.52 v -9.6"
         id="path125" />
      <path
         style="fill:none;stroke:#000000;stroke-linecap:round"
         d="M 0,1122.52 H -9.6"
         id="path126" />
      <path
         style="fill:none;stroke:#000000;stroke-linecap:round"
         d="m 0,1122.52 v 9.6"
         id="path127" />
      <path
         style="fill:none;stroke:#000000;stroke-linecap:round"
         d="M 0,1122.52 H 9.6"
         id="path128" />
      <path
         style="fill:none;stroke:#000000;stroke-linecap:round"
         d="m 0,1112.92 v -1.89"
         id="path129" />
      <path
         style="fill:none;stroke:#000000;stroke-linecap:round"
         d="m -9.6,1122.52 h -1.8898"
         id="path130" />
      <path
         style="fill:none;stroke:#000000;stroke-linecap:round"
         d="m 0,1132.12 v 1.89"
         id="path131" />
      <path
         style="fill:none;stroke:#000000;stroke-linecap:round"
         d="m 9.6,1122.52 h 1.8898"
         id="path132" />
    </symbol>
    <symbol
       id="SW_CENTERMARKSYMBOL_16">
      <path
         style="fill:none;stroke:#000000;stroke-linecap:round"
         d="m 0,1122.52 v -9.6"
         id="path133" />
      <path
         style="fill:none;stroke:#000000;stroke-linecap:round"
         d="M 0,1122.52 H -9.6"
         id="path134" />
      <path
         style="fill:none;stroke:#000000;stroke-linecap:round"
         d="m 0,1122.52 v 9.6"
         id="path135" />
      <path
         style="fill:none;stroke:#000000;stroke-linecap:round"
         d="M 0,1122.52 H 9.6"
         id="path136" />
      <path
         style="fill:none;stroke:#000000;stroke-linecap:round"
         d="m 0,1112.92 v -1.89"
         id="path137" />
      <path
         style="fill:none;stroke:#000000;stroke-linecap:round"
         d="m -9.6,1122.52 h -1.8898"
         id="path138" />
      <path
         style="fill:none;stroke:#000000;stroke-linecap:round"
         d="m 0,1132.12 v 1.89"
         id="path139" />
      <path
         style="fill:none;stroke:#000000;stroke-linecap:round"
         d="m 9.6,1122.52 h 1.8898"
         id="path140" />
    </symbol>
    <symbol
       id="SW_CENTERMARKSYMBOL_17">
      <path
         style="fill:none;stroke:#000000;stroke-linecap:round"
         d="m 0,1122.52 v -9.6"
         id="path141" />
      <path
         style="fill:none;stroke:#000000;stroke-linecap:round"
         d="M 0,1122.52 H -9.6"
         id="path142" />
      <path
         style="fill:none;stroke:#000000;stroke-linecap:round"
         d="m 0,1122.52 v 9.6"
         id="path143" />
      <path
         style="fill:none;stroke:#000000;stroke-linecap:round"
         d="M 0,1122.52 H 9.6"
         id="path144" />
      <path
         style="fill:none;stroke:#000000;stroke-linecap:round"
         d="m 0,1112.92 v -1.89"
         id="path145" />
      <path
         style="fill:none;stroke:#000000;stroke-linecap:round"
         d="m -9.6,1122.52 h -1.8898"
         id="path146" />
      <path
         style="fill:none;stroke:#000000;stroke-linecap:round"
         d="m 0,1132.12 v 1.89"
         id="path147" />
      <path
         style="fill:none;stroke:#000000;stroke-linecap:round"
         d="m 9.6,1122.52 h 1.8898"
         id="path148" />
    </symbol>
  </defs>
  <g
     inkscape:groupmode="layer"
     inkscape:label="0"
     id="g197"
     transform="translate(-150.44378,-358.11796)">
    <path
       d="M 475.33935,590.4477 A 56.692913,56.692913 0 1 0 452.26126,551.40391"
       style="fill:none;stroke:#ff0000;stroke-width:1;stroke-linecap:round;stroke-dasharray:none;stroke-opacity:1"
       id="path150" />
    <path
       style="fill:none;stroke:#ff0000;stroke-width:1;stroke-linecap:round;stroke-dasharray:none;stroke-opacity:1"
       d="M 475.339,590.448 214.294,744.747"
       id="path151" />
    <path
       d="m 191.2162,705.70296 a 32.125984,32.125984 0 1 0 23.07809,39.04379"
       style="fill:none;stroke:#ff0000;stroke-width:1;stroke-linecap:round;stroke-dasharray:none;stroke-opacity:1"
       id="path152" />
    <path
       style="fill:none;stroke:#ff0000;stroke-width:1;stroke-linecap:round;stroke-dasharray:none;stroke-opacity:1"
       d="M 452.261,551.404 191.216,705.703"
       id="path153" />
    <path
       d="m 533.09751,544.48654 a 24.566929,24.566929 0 0 0 -49.13385,0 24.566929,24.566929 0 0 0 49.13385,0 z"
       style="fill:none;stroke:#ff0000;stroke-width:1;stroke-linecap:round;stroke-dasharray:none;stroke-opacity:1"
       id="path154" />
    <path
       d="m 538.07637,528.13956 a 1.889765,1.889765 0 0 0 -3.77953,0 1.889765,1.889765 0 0 0 3.77953,0 z"
       style="fill:none;stroke:#ff0000;stroke-width:1;stroke-linecap:round;stroke-dasharray:none;stroke-opacity:1"
       id="path155" />
    <path
       d="m 482.76433,560.83352 a 1.889765,1.889765 0 0 0 -3.77953,0 1.889765,1.889765 0 0 0 3.77953,0 z"
       style="fill:none;stroke:#ff0000;stroke-width:1;stroke-linecap:round;stroke-dasharray:none;stroke-opacity:1"
       id="path156" />
    <path
       d="m 491.18861,511.95005 a 1.889765,1.889765 0 0 0 -3.77953,0 1.889765,1.889765 0 0 0 3.77953,0 z"
       style="fill:none;stroke:#ff0000;stroke-width:1;stroke-linecap:round;stroke-dasharray:none;stroke-opacity:1"
       id="path157" />
    <path
       d="m 529.65209,577.02303 a 1.889765,1.889765 0 0 0 -3.77953,0 1.889765,1.889765 0 0 0 3.77953,0 z"
       style="fill:none;stroke:#ff0000;stroke-width:1;stroke-linecap:round;stroke-dasharray:none;stroke-opacity:1"
       id="path158" />
    <path
       d="m 198.28379,736.8039 a 15.118111,15.118111 0 0 0 -30.23622,0 15.118111,15.118111 0 0 0 30.23622,0 z"
       style="fill:none;stroke:#ff0000;stroke-width:1;stroke-linecap:round;stroke-dasharray:none;stroke-opacity:1"
       id="path159" />
    <path
       d="m 207.73261,860.36362 a 24.56693,24.56693 0 0 0 -49.13386,0 24.56693,24.56693 0 0 0 49.13386,0 z"
       style="fill:none;stroke:#ff0000;stroke-width:1;stroke-linecap:round;stroke-dasharray:none;stroke-opacity:1"
       id="path165" />
    <path
       d="M 475.33935,714.00742 A 56.692913,56.692913 0 1 0 452.26126,674.96363"
       style="fill:none;stroke:#ff0000;stroke-width:1;stroke-linecap:round;stroke-dasharray:none;stroke-opacity:1"
       id="path166" />
    <path
       style="fill:none;stroke:#ff0000;stroke-width:1;stroke-linecap:round;stroke-dasharray:none;stroke-opacity:1"
       d="M 475.339,714.007 214.294,868.306"
       id="path167" />
    <path
       d="m 191.2162,829.26269 a 32.125984,32.125984 0 1 0 23.07809,39.04379"
       style="fill:none;stroke:#ff0000;stroke-width:1;stroke-linecap:round;stroke-dasharray:none;stroke-opacity:1"
       id="path168" />
    <path
       style="fill:none;stroke:#ff0000;stroke-width:1;stroke-linecap:round;stroke-dasharray:none;stroke-opacity:1"
       d="M 452.261,674.964 191.216,829.263"
       id="path169" />
    <path
       d="m 538.07637,651.69929 a 1.889765,1.889765 0 0 0 -3.77953,0 1.889765,1.889765 0 0 0 3.77953,0 z"
       style="fill:none;stroke:#ff0000;stroke-width:1;stroke-linecap:round;stroke-dasharray:none;stroke-opacity:1"
       id="path171" />
    <path
       d="m 482.76433,684.39324 a 1.889765,1.889765 0 0 0 -3.77953,0 1.889765,1.889765 0 0 0 3.77953,0 z"
       style="fill:none;stroke:#ff0000;stroke-width:1;stroke-linecap:round;stroke-dasharray:none;stroke-opacity:1"
       id="path172" />
    <path
       d="m 491.18861,635.50977 a 1.889765,1.889765 0 0 0 -3.77953,0 1.889765,1.889765 0 0 0 3.77953,0 z"
       style="fill:none;stroke:#ff0000;stroke-width:1;stroke-linecap:round;stroke-dasharray:none;stroke-opacity:1"
       id="path173" />
    <path
       d="m 529.65209,700.58275 a 1.889765,1.889765 0 0 0 -3.77953,0 1.889765,1.889765 0 0 0 3.77953,0 z"
       style="fill:none;stroke:#ff0000;stroke-width:1;stroke-linecap:round;stroke-dasharray:none;stroke-opacity:1"
       id="path174" />
    <path
       d="m 523.64869,668.04626 a 15.11811,15.11811 0 0 0 -30.23622,0 15.11811,15.11811 0 0 0 30.23622,0 z"
       style="fill:none;stroke:#ff0000;stroke-width:1;stroke-linecap:round;stroke-dasharray:none;stroke-opacity:1"
       id="path176" />
    <path
       d="m 207.73261,607.63047 a 24.56693,24.56693 0 0 0 -49.13386,0 24.56693,24.56693 0 0 0 49.13386,0 z"
       style="fill:none;stroke:#ff0000;stroke-width:1;stroke-linecap:round;stroke-dasharray:none;stroke-opacity:1"
       id="path181" />
    <path
       d="M 475.33935,461.27427 A 56.692913,56.692913 0 1 0 452.26126,422.23048"
       style="fill:none;stroke:#ff0000;stroke-width:1;stroke-linecap:round;stroke-dasharray:none;stroke-opacity:1"
       id="path182" />
    <path
       style="fill:none;stroke:#ff0000;stroke-width:1;stroke-linecap:round;stroke-dasharray:none;stroke-opacity:1"
       d="M 475.339,461.274 214.294,615.573"
       id="path183" />
    <path
       d="m 191.2162,576.52954 a 32.125984,32.125984 0 1 0 23.07809,39.04378"
       style="fill:none;stroke:#ff0000;stroke-width:1;stroke-linecap:round;stroke-dasharray:none;stroke-opacity:1"
       id="path184" />
    <path
       style="fill:none;stroke:#ff0000;stroke-width:1;stroke-linecap:round;stroke-dasharray:none;stroke-opacity:1"
       d="M 452.261,422.23 191.216,576.53"
       id="path185" />
    <path
       d="m 533.09751,415.31311 a 24.566929,24.566929 0 0 0 -49.13385,0 24.566929,24.566929 0 0 0 49.13385,0 z"
       style="fill:none;stroke:#ff0000;stroke-width:1;stroke-linecap:round;stroke-dasharray:none;stroke-opacity:1"
       id="path186" />
    <path
       d="m 538.07637,398.96613 a 1.889765,1.889765 0 0 0 -3.77953,0 1.889765,1.889765 0 0 0 3.77953,0 z"
       style="fill:none;stroke:#ff0000;stroke-width:1;stroke-linecap:round;stroke-dasharray:none;stroke-opacity:1"
       id="path187" />
    <path
       d="m 482.76433,431.66009 a 1.889765,1.889765 0 0 0 -3.77953,0 1.889765,1.889765 0 0 0 3.77953,0 z"
       style="fill:none;stroke:#ff0000;stroke-width:1;stroke-linecap:round;stroke-dasharray:none;stroke-opacity:1"
       id="path188" />
    <path
       d="m 491.18861,382.77662 a 1.889765,1.889765 0 0 0 -3.77953,0 1.889765,1.889765 0 0 0 3.77953,0 z"
       style="fill:none;stroke:#ff0000;stroke-width:1;stroke-linecap:round;stroke-dasharray:none;stroke-opacity:1"
       id="path189" />
    <path
       d="m 529.65209,447.8496 a 1.889765,1.889765 0 0 0 -3.77953,0 1.889765,1.889765 0 0 0 3.77953,0 z"
       style="fill:none;stroke:#ff0000;stroke-width:1;stroke-linecap:round;stroke-dasharray:none;stroke-opacity:1"
       id="path190" />
  </g>
</svg>
